<svg xmlns="http://www.w3.org/2000/svg" viewBox="0 0 351.6 66.6">
  <path fill="#76B900" d="M109.9 12.1v42.4h9.1V32.8l14.9 21.7h11.2L127.5 30l16.4-17.9h-11.2L119 29.8V12.1h-9.1zM153.7 12.1l-15.3 42.4h9.6l3.1-9.4h16.1l3.2 9.4h9.9l-15.5-42.4h-11.1zm5.4 8.5l5.6 17h-11.3l5.7-17zM56.5 12.1v42.4h9.1V35.9h14.1v-7.6H65.6v-8.5h16.8v-7.7H56.5zM183.4 12.1v42.4h27v-7.7h-17.9V12.1h-9.1zM351.6 12.1l-9.1 25.4-9.2-25.4h-9.8l14.2 36v6.4h9.5v-6.3l14.4-36.1h-10zM217.7 12.1v42.4h9.1V12.1h-9.1zM282.4 12.1h-21v42.4h21c12.6 0 20.7-8.4 20.7-21.2 0-12.8-8.1-21.2-20.7-21.2zm-0.5 34.7h-11.4V19.8h11.4c7.3 0 12.1 5.1 12.1 13.5 0 8.4-4.8 13.5-12.1 13.5zM247.7 12.1l-15.3 42.4h9.6l3.1-9.4h16.1l3.2 9.4h9.9l-15.5-42.4h-11.1zm5.4 8.5l5.6 17h-11.3l5.7-17z"/>
  <path fill="#76B900" d="M0 0v66.6h42.8V55.3H11.3V11.3h31.5V0H0z"/>
  <path fill="#76B900" d="M17.7 22.5v22h13.8v-22h-13.8z"/>
</svg>
