<svg xmlns="http://www.w3.org/2000/svg" viewBox="0 0 200 40">
  <g fill="#76B900">
    <!-- NVIDIA Eye Logo -->
    <path d="M12.3,10.5c0,0,7.1-5.9,16.5-6.5v-3C17.1,1.6,6.8,9.1,6.8,9.1L12.3,10.5z"/>
    <path d="M28.8,4v2.9c-7.3,0.5-12.8,4.7-12.8,4.7l-3.7-1C17.1,7.3,28.8,4,28.8,4z"/>
    <path d="M28.8,10.1V7.5C22,8,17.6,11.4,17.6,11.4l2.5,0.7C20.1,12.1,24.1,10.4,28.8,10.1z"/>
    <path d="M28.8,13.1v-2.5c-3.8,0.3-7.1,1.7-7.1,1.7l1.8,0.5C25.2,12.3,28.8,13.1,28.8,13.1z"/>
    <path d="M6.4,25.5v-15l-5.8-1.6v19.4h35.5v-2.8H6.4z"/>
    <path d="M28.8,16.5v-2.8c-2.5,0.3-4.6,1-4.6,1l1.2,0.3C26.5,15.4,28.8,16.5,28.8,16.5z"/>
    <path d="M36.1,10.5V1h-4.8v24.5h4.8v-15H36.1z"/>
    <!-- NVIDIA Text -->
    <path d="M58.1,7.9h4.4v19.3h-4.4V7.9z"/>
    <path d="M47.4,7.9h4.7l7.2,12.4V7.9h4.4v19.3H59L51.8,14.8v12.4h-4.4V7.9z"/>
    <path d="M79.4,7.9h4.9l5.8,19.3h-4.7l-1.1-4.2h-5.8l-1.1,4.2h-4.5L79.4,7.9z M81.8,12.8l-1.9,7h3.9L81.8,12.8z"/>
    <path d="M92.1,7.9h4.4v19.3h-4.4V7.9z"/>
    <path d="M99.3,7.9h6.8c6.3,0,9.5,4.1,9.5,9.7c0,5.6-3.2,9.6-9.5,9.6h-6.8V7.9z M103.7,11.4v12.2h2.2c3.5,0,5.3-2.4,5.3-6.1c0-3.7-1.8-6.1-5.3-6.1H103.7z"/>
    <path d="M118.1,7.9h4.4v19.3h-4.4V7.9z"/>
    <path d="M125.3,7.9h4.7l7.2,12.4V7.9h4.4v19.3h-4.7l-7.2-12.4v12.4h-4.4V7.9z"/>
  </g>
</svg>
